<svg xmlns="http://www.w3.org/2000/svg" viewBox="0 0 438.83 97.11">
    <g>
        <path d="M166.87,45.9v5.6H132.72V86.69h-6.17V12.51h43.54V18.1H132.72V45.9Z"/>
        <path d="M187.36,61c.19,4.46.85,21.92,22.19,21.92A33.27,33.27,0,0,0,226,79v6a42.06,42.06,0,0,1-16.6,3.23c-23,0-27.9-17.83-27.9-28.84,0-16.13,9.21-29.6,24.95-29.6a22.28,22.28,0,0,1,21.16,14c2.94,6.64,3,13.66,3,17.26Zm37.28-5.31c-1.14-13.94-9.11-20.58-18.31-20.58-10.82,0-18.12,8.72-19,20.58Z"/>
        <path d="M246.17,61c.19,4.46.85,21.92,22.2,21.92A33.19,33.19,0,0,0,284.78,79v6a42,42,0,0,1-16.6,3.23c-23,0-27.89-17.83-27.89-28.84,0-16.13,9.2-29.6,25-29.6a22.27,22.27,0,0,1,21.15,14c2.94,6.64,3,13.66,3,17.26Zm37.28-5.31c-1.14-13.94-9.1-20.58-18.31-20.58-10.81,0-18.12,8.72-19,20.58Z"/>
        <path d="M343.5,77.3a22.23,22.23,0,0,1-19.73,10.91c-13.19,0-24.86-9.87-24.86-29.22,0-19.16,11.48-29.22,24.86-29.22A22.41,22.41,0,0,1,343.5,40.68V8.9h6V86.69h-6ZM324.43,35.09c-9.77,0-19.54,6.64-19.54,23.9,0,16.79,9.3,23.91,19.64,23.91,10,0,19.16-6.93,19.16-23.91C343.69,41.82,334.3,35.09,324.43,35.09Z"/>
        <path d="M367.59,34.14a34.15,34.15,0,0,1,17-4.37c7.12,0,14.52,2.09,18.69,7.31,2.75,3.51,3.32,7.68,3.32,13.37V76.73a22.15,22.15,0,0,0,1.9,10h-6.17c-1.13-2.47-1.42-4-1.61-9.58-7.21,10.15-16.7,11.1-21,11.1-11.58,0-17.46-7.4-17.46-16.13,0-4,.38-14.42,17.46-17.36,2.46-.47,13.56-1.89,15.84-2.46,1.9-.48,5-1.24,5-6.17,0-7.78-7.78-11-15.85-11a29.3,29.3,0,0,0-16.6,4.83Zm33,21.34C398.23,57,397,57.19,386.09,58.8c-9.67,1.52-17.93,2.75-17.93,13.09,0,4.37,2,11,12,11,10.91,0,17.55-7.78,20.4-14.23Z"/>
        <path d="M438.83,86.69h-4c-10.53,0-10.91-5.88-10.91-11.57V8.9h6V74.83c0,3.61,0,6.55,5.12,6.55h3.79Z"/>
        <path d="M14.27,12.91a1.36,1.36,0,0,1-1.35,1.36H1.36A1.36,1.36,0,0,1,0,12.91V1.36A1.36,1.36,0,0,1,1.36,0H12.92a1.36,1.36,0,0,1,1.35,1.36Z"/>
        <path d="M14.27,95.76a1.36,1.36,0,0,1-1.35,1.35H1.36A1.36,1.36,0,0,1,0,95.76V84.2a1.36,1.36,0,0,1,1.36-1.36H12.92a1.36,1.36,0,0,1,1.35,1.36Z"/>
        <path d="M14.27,79.19a1.36,1.36,0,0,1-1.35,1.35H1.36A1.36,1.36,0,0,1,0,79.19V67.63a1.36,1.36,0,0,1,1.36-1.36H12.92a1.36,1.36,0,0,1,1.35,1.36Z"/>
        <path d="M14.27,62.62A1.36,1.36,0,0,1,12.92,64H1.36A1.36,1.36,0,0,1,0,62.62V51.06A1.36,1.36,0,0,1,1.36,49.7H12.92a1.36,1.36,0,0,1,1.35,1.36Z"/>
        <path d="M14.27,46.05a1.36,1.36,0,0,1-1.35,1.36H1.36A1.36,1.36,0,0,1,0,46.05V34.49a1.35,1.35,0,0,1,1.36-1.35H12.92a1.35,1.35,0,0,1,1.35,1.35Z"/>
        <path d="M14.27,29.48a1.36,1.36,0,0,1-1.35,1.36H1.36A1.36,1.36,0,0,1,0,29.48V17.92a1.36,1.36,0,0,1,1.36-1.35H12.92a1.36,1.36,0,0,1,1.35,1.35Z"/>
        <path d="M30.84,12.91a1.36,1.36,0,0,1-1.36,1.36H17.92a1.36,1.36,0,0,1-1.35-1.36V1.36A1.36,1.36,0,0,1,17.92,0H29.48a1.36,1.36,0,0,1,1.36,1.36Z"/>
        <path d="M30.84,95.76a1.36,1.36,0,0,1-1.36,1.35H17.92a1.36,1.36,0,0,1-1.35-1.35V84.2a1.36,1.36,0,0,1,1.35-1.36H29.48a1.36,1.36,0,0,1,1.36,1.36Z"/>
        <path d="M30.84,79.19a1.36,1.36,0,0,1-1.36,1.35H17.92a1.36,1.36,0,0,1-1.35-1.35V67.63a1.36,1.36,0,0,1,1.35-1.36H29.48a1.36,1.36,0,0,1,1.36,1.36Z"/>
        <path d="M30.84,62.62A1.36,1.36,0,0,1,29.48,64H17.92a1.36,1.36,0,0,1-1.35-1.36V51.06a1.36,1.36,0,0,1,1.35-1.36H29.48a1.36,1.36,0,0,1,1.36,1.36Z"/>
        <path d="M30.84,46.05a1.36,1.36,0,0,1-1.36,1.36H17.92a1.36,1.36,0,0,1-1.35-1.36V34.49a1.35,1.35,0,0,1,1.35-1.35H29.48a1.35,1.35,0,0,1,1.36,1.35Z"/>
        <path d="M30.84,29.48a1.36,1.36,0,0,1-1.36,1.36H17.92a1.36,1.36,0,0,1-1.35-1.36V17.92a1.36,1.36,0,0,1,1.35-1.35H29.48a1.36,1.36,0,0,1,1.36,1.35Z"/>
        <path d="M46.05,0H34.49a1.35,1.35,0,0,0-1.35,1.36V29.48a1.35,1.35,0,0,0,1.35,1.36H86.71L69.92,1.76a3.53,3.53,0,0,0-3-1.76H46.05Z"/>
        <path d="M46.05,97.11H34.49a1.35,1.35,0,0,1-1.35-1.35V67.63a1.35,1.35,0,0,1,1.35-1.36H86.71L69.92,95.35a3.53,3.53,0,0,1-3,1.76H46.05Z"/>
        <path d="M57.6,64H88l8.91-15.42L88,33.14H34.49a1.35,1.35,0,0,0-1.35,1.35V62.62A1.35,1.35,0,0,0,34.49,64H57.6Z"/>
    </g>
</svg>