<?xml version="1.0" encoding="utf-8"?>
<!-- Generator: Adobe Illustrator 23.0.4, SVG Export Plug-In . SVG Version: 6.00 Build 0)  -->
<svg version="1.0" id="レイヤー_1" xmlns="http://www.w3.org/2000/svg" xmlns:xlink="http://www.w3.org/1999/xlink" x="0px"
	 y="0px" viewBox="0 0 1024 1024" enable-background="new 0 0 1024 1024" xml:space="preserve">
<path fill="#3B5999" d="M150.8,136c0,7.4-6.3,14.8-14.8,14.8H14.8C6.3,150.8,0,144.5,0,136V14.8C0,6.3,6.3,0,14.8,0h122.3
	c7.4,0,14.8,6.3,14.8,14.8V136H150.8z"/>
<path fill="#FF5700" d="M150.8,1010.2c0,7.4-6.3,13.7-14.8,13.7H14.8c-7.4,0-14.8-6.3-14.8-13.7V887.9c0-8.4,6.3-14.8,14.8-14.8l0,0
	h122.3c7.4,0,14.8,6.3,14.8,14.8v122.3H150.8z"/>
<path fill="#4285F4" d="M150.8,835.1c0,7.4-6.3,13.7-14.8,13.7H14.8c-7.4,0-14.8-6.3-14.8-13.7V712.8c0-8.4,6.3-14.8,14.8-14.8l0,0
	h122.3c7.4,0,14.8,6.3,14.8,14.8v122.3H150.8z"/>
<path fill="#333333" d="M150.8,660.1c0,8.4-6.3,14.8-13.7,14.8l0,0H14.8c-8.4,0-14.8-6.3-14.8-14.8l0,0V538.8
	c0-8.4,6.3-14.8,14.8-14.8l0,0h122.3c7.4,0,14.8,6.3,14.8,14.8v121.3H150.8z"/>
<path fill="#0077B5" d="M150.8,485.1c0,7.4-6.3,14.8-14.8,14.8H14.8c-8.4,0-14.8-6.3-14.8-14.8l0,0V363.8c0-7.4,6.3-14.8,13.7-14.8
	l0,0H136c7.4,0,13.7,6.3,14.8,13.7V485.1z"/>
<path fill="#55ACEE" d="M150.8,311.1c0,7.4-6.3,14.8-14.8,14.8H14.8c-8.4,0-14.8-6.3-14.8-14.8l0,0V188.8c0-7.4,6.3-14.8,14.8-14.8
	h122.3c7.4,0,13.7,6.3,14.8,14.8v122.3H150.8z"/>
<path fill="#CD201F" d="M324.8,136c0,8.4-6.3,14.8-14.8,14.8l0,0H188.8c-7.4,0-14.8-6.3-14.8-14.8V14.8C174,7.4,180.3,0,188.8,0
	h122.3c8.4,0,14.8,6.3,14.8,14.8l0,0V136H324.8z"/>
<path fill="#0077B5" d="M324.8,1010.2c0,7.4-6.3,14.8-14.8,13.7H188.8c-7.4,0-13.7-6.3-14.8-13.7V887.9c0-7.4,6.3-14.8,14.8-14.8
	h122.3c8.4,0,14.8,6.3,14.8,14.8l0,0v122.3H324.8z"/>
<path fill="#D32D02" d="M324.8,835.1c0,7.4-6.3,14.8-14.8,13.7H188.8c-7.4,0-13.7-6.3-14.8-13.7V712.8c0-7.4,6.3-14.8,14.8-14.8
	h122.3c8.4,0,14.8,6.3,14.8,14.8l0,0v122.3H324.8z"/>
<path fill="#59BA0D" d="M324.8,660.1c0,8.4-6.3,14.8-13.7,14.8l0,0H188.8c-7.4,0-14.8-6.3-14.8-14.8V538.8c0-7.4,6.3-14.8,14.8-14.8
	h122.3c8.4,0,14.8,6.3,14.8,14.8l0,0v121.3H324.8z"/>
<path fill="#333333" d="M324.8,485.1c0,8.4-6.3,14.8-14.8,14.8l0,0H188.8c-7.4,0-14.8-6.3-14.8-14.8V363.8c0-7.4,6.3-13.7,14.8-13.7
	h122.3c7.4,0,14.8,6.3,14.8,13.7l0,0v121.3H324.8z"/>
<path fill="#FF6600" d="M324.8,311.1c0,8.4-6.3,14.8-14.8,14.8l0,0H188.8c-7.4,0-14.8-6.3-14.8-14.8V188.8c0-7.4,6.3-13.7,14.8-14.8
	h122.3c7.4,0,14.8,6.3,14.8,14.8v122.3H324.8z"/>
<path fill="#E14500" d="M486.1,0H363.8C356.4,0,349,6.3,349,13.7l0,0V310c0,7.4,6.3,14.8,13.7,14.8l0,0h550.4L737.1,19
	c-6.3-11.6-19-17.9-31.6-19H486.1z"/>
<path fill="#E14500" d="M486.1,1023.9H363.8c-7.4,0-13.7-6.3-13.7-13.7V712.8c0-7.4,6.3-14.8,13.7-14.8l0,0h550.4l-177.2,306.9
	c-6.3,11.6-19,17.9-31.6,19C705.4,1023.9,486.1,1023.9,486.1,1023.9z"/>
<path fill="#E14500" d="M607.4,674.9h320.6l93.8-162.4L927.9,349H363.8c-7.4,0-13.7,6.3-13.7,13.7V659c0,7.4,6.3,14.8,13.7,14.8l0,0
	h243.6V674.9z"/>
<path fill="#FFFFFF" d="M104.7,95.4l3.5-22.8H86.3v-14c0-6.1,2.6-12.3,13.1-12.3h9.6V27.1c0,0-8.8-1.8-17.5-1.8
	c-17.5,0-29.8,10.5-29.8,30.7v17.5H41.7v21.9h20.2v54.3h24.5V95.4H104.7z"/>
<path fill="#FFFFFF" d="M119.2,227.8c0,1.1,0,2.1,0,3.2c0,29.5-22.1,64.3-64.3,64.3c-12.7,0-24.3-3.2-34.8-10.5c2.1,0,3.2,0,5.3,0
	c10.5,0,20-3.2,27.4-9.5c-9.5,0-17.9-6.3-21.1-15.8c1.1,0,3.2,0,4.2,0c2.1,0,4.2,0,6.3-1.1c-10.5-2.1-17.9-11.6-17.9-22.1l0,0
	c3.2,2.1,6.3,3.2,10.5,3.2c-6.3-4.2-9.5-10.5-9.5-19c0-4.2,1.1-8.4,3.2-11.6C39,222.5,55.9,230.9,74.9,232c-1.1-1.1-1.1-2.1-1.1-4.2
	c0-12.7,9.5-22.1,22.1-22.1c6.3,0,12.7,3.2,16.9,7.4c5.3-1.1,9.5-3.2,14.8-5.3c-2.1,5.3-5.3,9.5-9.5,12.7c4.2,0,8.4-2.1,12.7-3.2
	C126.5,220.4,123.4,224.6,119.2,227.8L119.2,227.8z"/>
<path fill="#FFFFFF" d="M47.5,474.5h-20v-66.4h20V474.5z M38,399.6c-6.3,0-11.6-5.3-11.6-11.6c0-6.3,5.3-11.6,11.6-11.6
	s11.6,5.3,11.6,11.6C49.6,393.3,44.3,399.6,38,399.6z M124.4,474.5h-20v-31.6c0-7.4,0-17.9-10.5-17.9s-12.7,8.4-12.7,16.9v32.7h-20
	v-66.4h20v9.5l0,0c3.2-5.3,9.5-10.5,19-10.5c21.1,0,24.3,13.7,24.3,31.6V474.5L124.4,474.5z"/>
<path fill="#FFFFFF" d="M56.9,631.6c0,0,0,1.1-1.1,1.1s-1.1,0-1.1-1.1c0,0,0-1.1,1.1-1.1C56.9,630.6,56.9,631.6,56.9,631.6z
	 M50.6,630.6c0,0,0,1.1,1.1,1.1s1.1,0,1.1,0s0-1.1-1.1-1.1S50.6,630.6,50.6,630.6L50.6,630.6z M60.1,630.6c-1.1,0-1.1,1.1-1.1,1.1
	l1.1,1.1c1.1,0,1.1-1.1,1.1-1.1C61.2,630.6,61.2,630.6,60.1,630.6z M74.9,551.5c-27.4,0-48.5,21.1-48.5,48.5
	c0,22.1,13.7,41.1,33.7,47.5c2.1,0,3.2-1.1,3.2-2.1c0-1.1,0-8.4,0-12.7c0,0-13.7,3.2-16.9-6.3c0,0-2.1-5.3-5.3-7.4
	c0,0-4.2-3.2,0-3.2c0,0,5.3,0,7.4,5.3c4.2,8.4,11.6,6.3,14.8,4.2c0-3.2,2.1-5.3,3.2-6.3c-11.6-1.1-22.1-3.2-22.1-22.1
	c0-5.3,1.1-8.4,4.2-11.6c0-1.1-2.1-6.3,0-13.7c5.3-1.1,14.8,5.3,14.8,5.3c4.2-1.1,8.4-2.1,12.7-2.1s8.4,1.1,12.7,2.1
	c0,0,9.5-6.3,13.7-5.3c3.2,7.4,1.1,12.7,0,13.7c3.2,3.2,5.3,6.3,5.3,11.6c0,19-11.6,21.1-23.2,22.1c2.1,1.1,3.2,4.2,3.2,9.5
	c0,6.3,0,14.8,0,16.9c0,1.1,1.1,3.2,3.2,2.1c20-6.3,33.7-25.3,33.7-47.5C124.4,572.6,102.3,551.5,74.9,551.5z M42.2,622.1v1.1h1.1
	v-1.1H42.2z M40.1,620C39,621.1,40.1,621.1,40.1,620c1.1,1.1,1.1,1.1,1.1,1.1C41.1,621.1,41.1,620,40.1,620L40.1,620z M46.4,628.5
	v1.1c0,0,1.1,1.1,1.1,0v-1.1C47.5,627.4,47.5,627.4,46.4,628.5z M44.3,625.3v1.1c0,0,1.1,1.1,1.1,0v-1.1
	C45.3,625.3,44.3,624.3,44.3,625.3L44.3,625.3z"/>
<path fill="#FFFFFF" d="M116,775c0,24.3-16.9,41.1-40.1,41.1s-42.2-19-42.2-42.2c0-23.2,19-42.2,42.2-42.2
	c11.6,0,21.1,4.2,28.5,10.5l-11.6,10.5c-14.8-14.8-42.2-3.2-42.2,20c0,14.8,11.6,26.4,26.4,26.4c16.9,0,23.2-11.6,24.3-17.9H75.9
	v-14.8H116C116,769.8,116,771.9,116,775L116,775z"/>
<path fill="#FFFFFF" d="M64.3,958.5c-3.2,0-5.3-2.1-5.3-5.3c0-3.2,2.1-5.3,5.3-5.3s5.3,2.1,5.3,5.3
	C69.6,956.4,67.5,958.5,64.3,958.5z M124.4,949c0,27.4-22.1,49.6-49.6,49.6S26.4,976.4,26.4,949c0-27.4,22.1-49.6,49.6-49.6
	S124.4,921.6,124.4,949z M98.1,940.6c-2.1,0-3.2,1.1-4.2,2.1c-4.2-3.2-10.5-5.3-16.9-5.3l3.2-15.8l10.5,2.1c0,3.2,2.1,5.3,5.3,5.3
	c3.2,0,5.3-2.1,5.3-5.3s-2.1-5.3-5.3-5.3c-2.1,0-3.2,1.1-4.2,3.2l-12.7-3.2c-1.1,0-1.1,0-1.1,1.1l-4.2,17.9
	c-6.3,0-12.7,2.1-16.9,5.3c-1.1-1.1-3.2-2.1-5.3-2.1c-7.4,0-9.5,9.5-3.2,12.7c0,1.1,0,2.1,0,3.2c0,10.5,11.6,19,26.4,19
	s26.4-8.4,26.4-19c0-1.1,0-2.1,0-3.2C107.6,950.1,105.4,940.6,98.1,940.6L98.1,940.6z M84.4,963.8c-3.2,3.2-14.8,3.2-19,0
	c0,0-1.1,0-2.1,0c0,0,0,1.1,0,2.1c4.2,4.2,16.9,4.2,22.1,0c0,0,0-1.1,0-2.1S85.4,962.7,84.4,963.8z M86.5,949
	c-3.2,0-5.3,2.1-5.3,5.3c0,3.2,2.1,5.3,5.3,5.3c3.2,0,5.3-2.1,5.3-5.3C90.7,951.1,88.6,949,86.5,949z"/>
<path fill="#FFFFFF" d="M295.3,52.7c-1.1-4.2-4.2-7.4-8.4-8.4c-7.4-2.1-36.9-2.1-36.9-2.1s-29.5,0-36.9,2.1
	c-4.2,1.1-7.4,4.2-8.4,8.4c-2.1,7.4-2.1,23.2-2.1,23.2s0,15.8,2.1,23.2c1.1,4.2,4.2,7.4,8.4,8.4c7.4,2.1,36.9,2.1,36.9,2.1
	s29.5,0,36.9-2.1c4.2-1.1,7.4-4.2,8.4-8.4c2.1-7.4,2.1-23.2,2.1-23.2S297.4,60.1,295.3,52.7z M240.4,89.6V61.2l24.3,13.7L240.4,89.6
	L240.4,89.6z"/>
<path fill="#FFFFFF" d="M207.7,204.2v91.4h89.6v-91.4H207.7z M212,244.4L212,244.4C212,244.4,212,244.4,212,244.4
	C212,244.4,212,244.4,212,244.4z M255.6,255.4V276h-6.3v-21l-16-31.3h7.5c10.5,20.1,9.8,20.7,11.9,25.6c2.5-5.5,1.2-5,12.1-25.6h7
	L255.6,255.4z"/>
<path fill="#FFFFFF" d="M237.7,935c-6.1,0-11,4.6-11,10.3c0,5.6,4.9,10.3,11,10.3c6.1,0,11-4.6,11-10.3
	C248.7,939.6,243.8,935,237.7,935L237.7,935z M263.3,935c-6.1,0-11,4.6-11,10.3c0,5.6,4.9,10.3,11,10.3c6.1,0,11-4.6,11-10.3
	C274.3,939.6,269.4,935,263.3,935L263.3,935z M291.2,951.1l-1.1,0.8v-35.3c0-4.9-3.7-8.9-8.2-8.9h-64c-4.5,0-8.2,4-8.2,8.9v35.3
	c-0.4-0.2-0.8-0.5-1.1-0.8c-2.7-1.9-4.5,0.7-2.9,3.2c3.3,4,9.5,9,18.9,12.8c-10,34.2,24.5,39.6,23.9,22.1c0-0.1,0.1-10.1,0.1-17.2
	c0.9,0.2,1.7,0.4,2.4,0.6c0,7.1,0.1,16.5,0.1,16.7c-0.6,17.5,34,12.1,23.9-22.1c9.5-3.9,15.7-8.8,18.9-12.8
	C295.7,951.8,293.9,949.2,291.2,951.1z M285.8,954.5c-12.3,6.7-22.9,5.5-28.6,5.3c-4.2-0.2-5.8,1.6-6,4.4c-1.8-1.4-3.3-2.8-3.6-3
	c-0.9-1-2.4-1.4-4.8-1.4c-5.6,0.2-16,1.3-28.1-5v-34.3c0-6.2,1.6-8.1,7.2-8.1h56.6c5.4,0,7.3,2.3,7.3,8.1L285.8,954.5L285.8,954.5z"
	/>
<path fill="#FFFFFF" d="M248.7,472.4c-26.5,0-48-21.5-48-48c0-26.5,21.5-48,48-48c26.5,0,48,21.5,48,48
	C296.7,450.9,275.2,472.4,248.7,472.4z M248.7,382.6c-23.1,0-41.9,18.8-41.9,41.9c0,23.1,18.8,41.9,41.9,41.9
	c23.1,0,41.9-18.8,41.9-41.9C290.6,401.3,271.8,382.6,248.7,382.6z M254.3,400.7c-2.3-4.7-3.8-9.4-4.5-12.1v34c1.2,0.4,2,1.6,2,2.9
	c0,1.7-1.4,3.1-3.1,3.1c-1.7,0-3.1-1.4-3.1-3.1c0-1.4,0.9-2.6,2.2-3v-34c-0.7,2.7-2.2,7.3-4.5,12.1c-3.7,7.4-8.3,14-8.3,14l2.9,40.1
	c0,0,2.8,3.1,10.8,3.1h0c8,0,10.8-3.1,10.8-3.1l2.9-40.1C262.6,414.7,258,408.2,254.3,400.7L254.3,400.7z"/>
<g>
	<path fill="#FFFFFF" d="M200.4,797.1c0.2-3.3,0.4-6.4,0.6-9.5c0.2-2.7,0.4-5.3,0.5-8c0.1-1.2,0.4-2,1.6-2.8
		c5.7-3.6,8.3-8.9,7.7-15.6c-0.5-6.1-3.8-10.5-9.2-13.3c-0.9-0.4-1.2-0.9-1.2-1.9c-0.2-5.5-0.5-10.9-0.7-16.4c0-0.8,0-1.6,0-2.6
		c32.8,9.3,65.4,9.8,98.3,0c0,0.8,0,1.3,0,1.9c-0.2,5.9-0.5,11.7-0.7,17.6c0,0.8-0.4,1.1-1,1.3c-10,4.9-12.7,17.4-5.3,25.8
		c1.2,1.4,2.9,2.3,4.3,3.5c0.4,0.3,0.8,0.8,0.9,1.2c0.4,5.8,0.8,11.6,1.1,17.4c0,0.4,0,0.8-0.1,1.2c-16-3-32.1-4.2-48.3-4
		C232.6,793.2,216.5,794.8,200.4,797.1z M264.9,753.9c-0.7-3-2.1-5.4-4.3-7.3c-5.9-5.1-16.6-5.1-22.8-0.1c-3.2,2.5-4.9,5.9-5,9.9
		c-0.1,4.8-0.1,9.5,0,14.3c0.1,3.3,1.3,6.2,3.6,8.6c5.6,5.7,16.1,6.6,22.9,1.9c2.9-2,4.9-4.7,6-8.2c-3.3-1.1-6.5-2.1-9.8-3.2
		c-0.8,2-2,3.3-4,4.1c-3.2,1.2-8-0.4-7.6-5.2c0.3-3.6,0.1-7.3,0.1-10.9c0-2.9,1.7-4.7,4.6-4.9c3.1-0.2,5.4,0.9,6.7,4
		C258.6,755.9,261.7,754.9,264.9,753.9z"/>
	<path fill="#FFFFFF" d="M287.4,813.7c-3.5,3.1-7.4,3.1-10-0.1c0.5-0.7,1.1-1.5,1.6-2.2c1.1,0.5,2,1,3.1,1.3c0.8,0.3,1.8,0.2,2-0.9
		c0.2-1.1-0.5-1.5-1.4-1.7c-0.9-0.3-1.8-0.5-2.6-0.9c-1.6-0.9-2.5-2.2-2.3-4.1c0.2-1.9,1.3-3.1,3.1-3.6c2.2-0.7,4.4-0.3,6.4,1.1
		c-0.4,0.6-0.8,1.3-1.3,1.7c-0.3,0.3-0.9,0.3-1.3,0.3c-0.6,0-1.2-0.3-1.7-0.2c-0.5,0.1-1.2,0.5-1.3,0.9c-0.1,0.4,0.4,1.1,0.8,1.4
		c0.6,0.4,1.3,0.5,2,0.7c1.9,0.7,3.6,1.8,3.3,4.6c0,0.2,0,0.4,0.1,0.9c0.6-0.6,0.9-1,1.2-1.4c1.1,0.5,2.1,1,3.1,1.3
		c0.9,0.3,1.8,0.1,2-1c0.2-1-0.5-1.4-1.4-1.7c-0.9-0.3-1.9-0.5-2.7-0.9c-1.6-0.9-2.5-2.4-2.2-4.3c0.3-1.8,1.4-2.9,3.1-3.5
		c2.1-0.7,4.6-0.2,6.3,1.2c-0.6,0.8-1.1,1.5-1.6,2.2c-1-0.2-1.9-0.5-2.7-0.5c-0.4,0-1.1,0.5-1.1,0.8c-0.1,0.4,0.2,1.2,0.5,1.4
		c0.6,0.4,1.4,0.6,2.1,0.8c2.6,0.9,3.7,2.4,3.4,4.8c-0.3,2.1-2.2,3.7-4.6,3.9C290.9,816.2,288.9,815.5,287.4,813.7z"/>
	<path fill="#FFFFFF" d="M255.9,815.6c0,0.2-0.1,0.3-0.1,0.5c-0.2,3.2-0.3,3.3-3.7,3.8c0-0.9,0-1.8,0-2.6c0-4.6,0.1-9.1,0-13.7
		c0-1.2,0.4-1.8,1.5-1.9c2-0.2,4-0.5,6-0.3c2.6,0.3,4.1,2.2,4.2,4.8c0,1.5-0.1,3,0,4.5c0.2,3.2-2.5,5.2-5,5.2
		C257.8,815.8,256.9,815.7,255.9,815.6z M255.7,808.3c0,1.2,0,2.3,0,3.5c0,0,0,0.1,0,0.1c0.3,0.4,0.5,0.9,0.9,1.1
		c1.8,0.6,3.4-0.5,3.4-2.5c0-1.3,0-2.6,0-3.9c0-2.3-1.1-3.2-3.3-2.9c-0.7,0.1-1,0.4-1,1.1C255.8,806,255.7,807.1,255.7,808.3z"/>
	<path fill="#FFFFFF" d="M211.5,808.4c0-0.4,0-0.9,0-1.3c-0.6-5.4,5-7.1,8.4-5.7c2.2,0.9,3.3,2.4,3.3,4.8c0,1.3,0,2.7,0,4
		c0,3.9-3,6.4-6.9,5.7c-2.7-0.5-5.1-2.1-4.8-5.8C211.6,809.6,211.5,809,211.5,808.4z M215.2,808.4c0,0.7,0,1.4,0,2.1
		c0.1,1.3,0.8,2,2.1,2c1.3,0,2.1-0.7,2.1-2c0-1.3,0-2.6,0-3.9c0-1.5-0.7-2.2-2.2-2.2c-1.4,0-2,0.7-2.1,2.2
		C215.2,807.3,215.2,807.9,215.2,808.4z"/>
	<path fill="#FFFFFF" d="M272.6,806.6c0.2-1-0.2-1.8-1-2.3c-1.6-0.9-3.1-0.3-4.5,0.6c-0.6-0.5-1.1-1-1.7-1.5
		c2.1-2.4,5.7-3.1,8.4-1.6c1.5,0.9,2.5,2.1,2.5,4c0,2.8,0,5.6,0,8.4c0,0.3-0.3,0.9-0.6,1c-2.4,0.8-4.8,1.2-7.3,0.5
		c-2.5-0.7-3.9-2.9-3.6-5.4c0.3-2.2,2.4-3.8,4.9-3.9C270.7,806.5,271.5,806.6,272.6,806.6z M272.7,813.1c0-0.6,0-1.1,0-1.6
		c0-2.3-0.2-2.5-2.5-2.2c0,0-0.1,0-0.1,0c-1,0.2-1.7,0.7-1.8,1.7c-0.1,1.1,0.5,1.8,1.5,2.1C270.7,813.3,271.6,813.1,272.7,813.1z"/>
	<path fill="#FFFFFF" d="M228.6,815.7c-1.3,0-2.4,0-3.7,0c0-3.5-0.2-7,0.1-10.5c0.2-2.7,3.5-4.7,6.5-4.2c3,0.5,5.3,2.1,5.1,5.9
		c-0.1,2.7,0,5.5,0,8.3c0,0.1,0,0.3-0.1,0.5c-1.2,0-2.3,0-3.6,0c0-3,0-6,0-8.9c0-1.5-0.7-2.2-2.2-2.2c-1.3,0-2.1,0.7-2.1,2
		c0,2.5,0,5.1,0,7.6C228.6,814.6,228.6,815.1,228.6,815.7z"/>
	<path fill="#FFFFFF" d="M242.2,815.7c-1.3,0-2.4,0-3.6,0c0-3.6-0.2-7.1,0.1-10.7c0.2-2.5,3.4-4.5,6.3-4.1c3.3,0.5,5.4,2.3,5.3,5.9
		c-0.1,2.9,0,5.8,0,8.8c-1.2,0-2.3,0-3.6,0c0-0.4-0.1-0.9-0.1-1.3c0-2.5,0-5.1,0-7.6c0-1.5-0.7-2.2-2.2-2.2c-1.4,0-2,0.7-2.1,2.2
		C242.1,809.7,242.2,812.6,242.2,815.7z"/>
	<path fill="#FFFFFF" d="M211,804.8c-0.9,0.3-1.7,0.6-2.6,0.8c-0.2,0.1-0.6-0.1-0.8-0.3c-0.9-1-1.9-1.1-3-0.7
		c-1.1,0.4-1.1,1.3-1.1,2.3c0,1.1,0,2.2,0,3.3c0,1,0.1,1.8,1.1,2.2c1.1,0.4,2,0.2,2.8-0.6c0.2-0.2,0.4-0.5,0.6-0.8c1,0.3,2,0.7,3,1
		c-0.6,2.4-3.3,4.2-5.9,3.9c-3.7-0.4-5.5-2.4-5.5-6.2c0-0.9,0-1.9,0-2.8c-0.2-4.9,4.1-6.6,7.7-5.7
		C209.2,801.8,210.2,802.8,211,804.8z"/>
</g>
<g id="Qiita_1_">
	<rect x="178.8" y="528.3" fill="#59BB0C" width="142.7" height="142.7"/>
	<g>
		<path fill="#FFFFFF" d="M225.4,611.6l5.1,5.1l-1.8,1.8l-5.3-5.3c-3.1,2.3-6.8,3.5-10.6,3.5c-10.7,0-18.2-8.5-18.2-17.9
			c0-10.8,8.5-18.2,17.9-18.2c10.7,0,18.2,8.5,18.2,17.9C230.7,603.2,229,608,225.4,611.6z M228.2,598.7c0-8.5-6.6-15.5-15.6-15.5
			c-7.9,0-15.4,6.2-15.4,15.6c0,7.9,6.2,15.4,15.6,15.4C220.6,614.2,228.2,608,228.2,598.7z"/>
		<path fill="#FFFFFF" d="M241.3,582.7c1.2,0,2.3,1,2.3,2.3c0,1.2-1,2.3-2.3,2.3c-1.2,0-2.3-1-2.3-2.3
			C239.1,583.7,240.1,582.7,241.3,582.7z M240.2,615.9v-24.7h2.4v24.7H240.2z"/>
		<path fill="#FFFFFF" d="M254.1,582.7c1.2,0,2.3,1,2.3,2.3c0,1.2-1,2.3-2.3,2.3c-1.2,0-2.3-1-2.3-2.3
			C251.8,583.7,252.8,582.7,254.1,582.7z M252.9,615.9v-24.7h2.4v24.7H252.9z"/>
		<path fill="#FFFFFF" d="M265.6,607.9v-23.6h2.4v7H279v2.4h-11.1v14.2c0,3.1,2.4,6.3,6.5,6.3c1.1,0,2.3-0.3,3.2-0.9l1.2,2
			c-1.3,0.8-2.9,1.2-4.4,1.2C268.9,616.4,265.6,612.1,265.6,607.9z"/>
		<path fill="#FFFFFF" d="M295,590.5c4,0,6.8,1.6,8.5,4.1v-3.3h2.4v24.7h-2.4v-3.6c-1.8,2.6-4.6,4.2-8.2,4.2
			c-7.9,0-13.2-6.2-13.2-12.9C282.1,595.7,288.3,590.5,295,590.5z M295,592.8c-5.5,0-10.6,4.3-10.6,10.8c0,5.5,4.3,10.6,10.8,10.6
			c3.2,0,6.3-1.5,8.2-4v-13.5C301.5,594.4,298.6,592.8,295,592.8z"/>
	</g>
</g>
</svg>
