<?xml version="1.0" encoding="utf-8"?>
<!-- Generator: Adobe Illustrator 23.0.4, SVG Export Plug-In . SVG Version: 6.00 Build 0)  -->
<svg version="1.1" id="レイヤー_1" 
	xmlns="http://www.w3.org/2000/svg" 
	xmlns:xlink="http://www.w3.org/1999/xlink" x="0px" y="0px" viewBox="0 0 96.9 97.1" style="enable-background:new 0 0 96.9 97.1;" xml:space="preserve">
	<style type="text/css">
	.st0{fill:#000000;}
	</style>
	<path class="st0" d="M14.3,12.9c0,0.7-0.6,1.4-1.4,1.4H1.4c-0.8,0-1.4-0.6-1.4-1.4V1.4C0,0.6,0.6,0,1.4,0h11.6
	c0.7,0,1.4,0.6,1.4,1.4V12.9z"/>
	<path class="st0" d="M14.3,95.8c0,0.7-0.6,1.3-1.4,1.3H1.4c-0.7,0-1.4-0.6-1.4-1.3V84.2c0-0.8,0.6-1.4,1.4-1.4c0,0,0,0,0,0h11.6
	c0.7,0,1.4,0.6,1.4,1.4V95.8z"/>
	<path class="st0" d="M14.3,79.2c0,0.7-0.6,1.3-1.4,1.3H1.4c-0.7,0-1.4-0.6-1.4-1.3V67.6c0-0.8,0.6-1.4,1.4-1.4c0,0,0,0,0,0h11.6
	c0.7,0,1.4,0.6,1.4,1.4V79.2z"/>
	<path class="st0" d="M14.3,62.6c0,0.8-0.6,1.4-1.3,1.4c0,0,0,0,0,0H1.4C0.6,64,0,63.4,0,62.6c0,0,0,0,0,0V51.1
	c0-0.8,0.6-1.4,1.4-1.4c0,0,0,0,0,0h11.6c0.7,0,1.4,0.6,1.4,1.4V62.6z"/>
	<path class="st0" d="M14.3,46c0,0.7-0.6,1.4-1.4,1.4H1.4C0.6,47.4,0,46.8,0,46c0,0,0,0,0,0V34.5c0-0.7,0.6-1.4,1.3-1.4c0,0,0,0,0,0
	h11.6c0.7,0,1.3,0.6,1.4,1.3V46z"/>
	<path class="st0" d="M14.3,29.5c0,0.7-0.6,1.4-1.4,1.4H1.4c-0.8,0-1.4-0.6-1.4-1.4c0,0,0,0,0,0V17.9c0-0.7,0.6-1.4,1.4-1.4h11.6
	c0.7,0,1.3,0.6,1.4,1.4V29.5z"/>
	<path class="st0" d="M30.8,12.9c0,0.8-0.6,1.4-1.4,1.4l0,0H17.9c-0.7,0-1.4-0.6-1.4-1.4V1.4c0-0.7,0.6-1.4,1.4-1.4h11.6
	c0.8,0,1.4,0.6,1.4,1.4c0,0,0,0,0,0V12.9z"/>
	<path class="st0" d="M30.8,95.8c0,0.7-0.6,1.4-1.4,1.3H17.9c-0.7,0-1.3-0.6-1.4-1.3V84.2c0-0.7,0.6-1.4,1.4-1.4h11.6
	c0.8,0,1.4,0.6,1.4,1.4l0,0V95.8z"/>
	<path class="st0" d="M30.8,79.2c0,0.7-0.6,1.4-1.4,1.3H17.9c-0.7,0-1.3-0.6-1.4-1.3V67.6c0-0.7,0.6-1.4,1.4-1.4h11.6
	c0.8,0,1.4,0.6,1.4,1.4l0,0V79.2z"/>
	<path class="st0" d="M30.8,62.6c0,0.8-0.6,1.4-1.3,1.4c0,0,0,0,0,0H17.9c-0.7,0-1.4-0.6-1.4-1.4V51.1c0-0.7,0.6-1.4,1.4-1.4h11.6
	c0.8,0,1.4,0.6,1.4,1.4l0,0V62.6z"/>
	<path class="st0" d="M30.8,46c0,0.8-0.6,1.4-1.4,1.4c0,0,0,0,0,0H17.9c-0.7,0-1.4-0.6-1.4-1.4V34.5c0-0.7,0.6-1.3,1.4-1.3h11.6
	c0.7,0,1.4,0.6,1.4,1.3c0,0,0,0,0,0V46z"/>
	<path class="st0" d="M30.8,29.5c0,0.8-0.6,1.4-1.4,1.4c0,0,0,0,0,0H17.9c-0.7,0-1.4-0.6-1.4-1.4V17.9c0-0.7,0.6-1.3,1.4-1.4h11.6
	c0.7,0,1.4,0.6,1.4,1.4V29.5z"/>
	<path class="st0" d="M46,0H34.5c-0.7,0-1.4,0.6-1.4,1.3c0,0,0,0,0,0v28.1c0,0.7,0.6,1.4,1.3,1.4c0,0,0,0,0,0h52.2L69.9,1.8
	c-0.6-1.1-1.8-1.7-3-1.8H46z"/>
	<path class="st0" d="M46,97.1H34.5c-0.7,0-1.3-0.6-1.3-1.3V67.6c0-0.7,0.6-1.4,1.3-1.4c0,0,0,0,0,0h52.2L69.9,95.3
	c-0.6,1.1-1.8,1.7-3,1.8H46z"/>
	<path class="st0" d="M57.6,64H88l8.9-15.4L88,33.1H34.5c-0.7,0-1.3,0.6-1.3,1.3v28.1c0,0.7,0.6,1.4,1.3,1.4c0,0,0,0,0,0H57.6z"/>
</svg>
