<?xml version="1.0" encoding="utf-8"?>
<!-- Generator: Adobe Illustrator 23.0.4, SVG Export Plug-In . SVG Version: 6.00 Build 0)  -->
<svg version="1.1" id="レイヤー_1" xmlns="http://www.w3.org/2000/svg" xmlns:xlink="http://www.w3.org/1999/xlink" x="0px"
	 y="0px" viewBox="0 0 600 300" style="enable-background:new 0 0 600 300;" xml:space="preserve">
<style type="text/css">
	.st0{fill:#E14500;}
	.st1{fill:none;}
	.st2{fill:none;stroke:#000000;stroke-width:2;stroke-miterlimit:10;}
</style>
<g>
	<g>
		<path d="M364.5,145.3c0,5.4-4.4,9.7-9.7,9.7c-5.4,0-9.7-4.4-9.7-9.7c0-5.4,4.4-9.7,9.7-9.7C360.1,135.5,364.5,139.9,364.5,145.3z"
			/>
		<path d="M354.7,158c-6.9,0-23.2,0.7-23.2,14.1v32.1c-0.1,2.1,1.5,3.9,3.6,4c2.1,0.1,3.9-1.5,4-3.6l1.8-19.5l1.9,72.5
			c0,2.7,2.2,4.9,4.9,4.9c2.7,0,4.9-2.2,4.9-4.9l2-44.6l2,44.6c0,2.7,2.2,4.9,4.9,4.9s4.9-2.2,4.9-4.9l2-72.5l1.8,19.5
			c0.1,2.1,1.9,3.7,4,3.6c2.1-0.1,3.7-1.9,3.6-4v-32.1C377.9,158.7,361.7,158,354.7,158z"/>
	</g>
	<g>
		<path d="M454,145.3c0,5.4-4.4,9.7-9.7,9.7c-5.4,0-9.7-4.4-9.7-9.7c0-5.4,4.4-9.7,9.7-9.7C449.6,135.5,454,139.9,454,145.3z"/>
		<path d="M444.2,158c-6.9,0-23.2,0.7-23.2,14.1v32.1c-0.1,2.1,1.5,3.9,3.6,4c2.1,0.1,3.9-1.5,4-3.6l1.8-19.5l1.9,72.5
			c0,2.7,2.2,4.9,4.9,4.9c2.7,0,4.9-2.2,4.9-4.9l2-44.6l2,44.6c0,2.7,2.2,4.9,4.9,4.9c2.7,0,4.9-2.2,4.9-4.9l2-72.5l1.8,19.5
			c0.1,2.1,1.9,3.7,4,3.6c2.1-0.1,3.7-1.9,3.6-4v-32.1C467.4,158.7,451.2,158,444.2,158z"/>
	</g>
	<g>
		<path d="M543.5,145.3c0,5.4-4.4,9.7-9.7,9.7c-5.4,0-9.7-4.4-9.7-9.7c0-5.4,4.4-9.7,9.7-9.7C539.1,135.5,543.5,139.9,543.5,145.3z"
			/>
		<path d="M533.7,158c-6.9,0-23.2,0.7-23.2,14.1v32.1c-0.1,2.1,1.5,3.9,3.6,4c2.1,0.1,3.9-1.5,4-3.6l1.8-19.5l1.9,72.5
			c0,2.7,2.2,4.9,4.9,4.9c2.7,0,4.9-2.2,4.9-4.9l2-44.6l2,44.6c0,2.7,2.2,4.9,4.9,4.9c2.7,0,4.9-2.2,4.9-4.9l2-72.5l1.8,19.5
			c0.1,2.1,1.9,3.7,4,3.6c2.1-0.1,3.7-1.9,3.6-4v-32.1C556.9,158.7,540.7,158,533.7,158z"/>
	</g>
	<g>
		<path d="M407.5,47.3c0,5.4-4.4,9.7-9.7,9.7c-5.4,0-9.7-4.4-9.7-9.7c0-5.4,4.4-9.7,9.7-9.7C403.1,37.5,407.5,41.9,407.5,47.3z"/>
		<path d="M397.7,60c-6.9,0-23.2,0.7-23.2,14.1v32.1c-0.1,2.1,1.5,3.9,3.6,4c2.1,0.1,3.9-1.5,4-3.6l1.8-19.5l1.9,72.5
			c0,2.7,2.2,4.9,4.9,4.9c2.7,0,4.9-2.2,4.9-4.9l2-44.6l2,44.6c0,2.7,2.2,4.9,4.9,4.9s4.9-2.2,4.9-4.9l2-72.5l1.8,19.5
			c0.1,2.1,1.9,3.7,4,3.6c2.1-0.1,3.7-1.9,3.6-4V74.1C420.9,60.7,404.7,60,397.7,60z"/>
	</g>
	<g>
		<path d="M497.5,47.3c0,5.4-4.4,9.7-9.7,9.7c-5.4,0-9.7-4.4-9.7-9.7c0-5.4,4.4-9.7,9.7-9.7C493.1,37.5,497.5,41.9,497.5,47.3z"/>
		<path d="M487.7,60c-6.9,0-23.2,0.7-23.2,14.1v32.1c-0.1,2.1,1.5,3.9,3.6,4s3.9-1.5,4-3.6l1.8-19.5l1.9,72.5c0,2.7,2.2,4.9,4.9,4.9
			c2.7,0,4.9-2.2,4.9-4.9l2-44.6l2,44.6c0,2.7,2.2,4.9,4.9,4.9c2.7,0,4.9-2.2,4.9-4.9l2-72.5l1.8,19.5c0.1,2.1,1.9,3.7,4,3.6
			s3.7-1.9,3.6-4V74.1C510.9,60.7,494.7,60,487.7,60z"/>
	</g>
</g>
<g>
	<path d="M76.2,96.3c0,5.4-4.4,9.7-9.7,9.7c-5.4,0-9.7-4.4-9.7-9.7c0-5.4,4.4-9.7,9.7-9.7C71.8,86.5,76.2,90.9,76.2,96.3z"/>
	<path d="M66.4,109c-6.9,0-23.2,0.7-23.2,14.1v32.1c-0.1,2.1,1.5,3.9,3.6,4s3.9-1.5,4-3.6l1.8-19.5l1.9,72.5c0,2.7,2.2,4.9,4.9,4.9
		s4.9-2.2,4.9-4.9l2-44.6l2,44.6c0,2.7,2.2,4.9,4.9,4.9s4.9-2.2,4.9-4.9l2-72.5l1.8,19.5c0.1,2.1,1.9,3.7,4,3.6
		c2.1-0.1,3.7-1.9,3.6-4v-32.1C89.6,109.7,73.4,109,66.4,109z"/>
</g>
<g>
	<path class="st0" d="M161.5,98.9c0,1.1-0.9,1.9-1.9,1.9H143c-1.1,0-1.9-0.9-1.9-1.9V82.4c0-1.1,0.9-1.9,1.9-1.9h16.6
		c1.1,0,1.9,0.9,1.9,1.9V98.9z"/>
	<path class="st0" d="M161.5,217.6c0,1.1-0.9,1.9-1.9,1.9H143c-1.1,0-1.9-0.9-1.9-1.9v-16.6c0-1.1,0.9-1.9,1.9-1.9c0,0,0,0,0,0h16.6
		c1.1,0,1.9,0.9,1.9,1.9V217.6z"/>
	<path class="st0" d="M161.5,193.9c0,1.1-0.9,1.9-1.9,1.9H143c-1.1,0-1.9-0.9-1.9-1.9v-16.6c0-1.1,0.9-1.9,1.9-1.9c0,0,0,0,0,0h16.6
		c1.1,0,1.9,0.9,1.9,1.9V193.9z"/>
	<path class="st0" d="M161.5,170.1c0,1.1-0.8,2-1.9,2c0,0,0,0,0,0H143c-1.1,0-1.9-0.9-1.9-1.9c0,0,0,0,0,0v-16.6
		c0-1.1,0.9-1.9,1.9-1.9c0,0,0,0,0,0h16.6c1.1,0,1.9,0.9,1.9,1.9V170.1z"/>
	<path class="st0" d="M161.5,146.4c0,1.1-0.9,1.9-1.9,1.9H143c-1.1,0-1.9-0.9-1.9-1.9c0,0,0,0,0,0v-16.6c0-1.1,0.9-1.9,1.9-1.9
		c0,0,0,0,0,0h16.6c1.1,0,1.9,0.9,1.9,1.9V146.4z"/>
	<path class="st0" d="M161.5,122.7c0,1.1-0.9,1.9-1.9,1.9H143c-1.1,0-1.9-0.9-1.9-1.9c0,0,0,0,0,0v-16.6c0-1.1,0.9-1.9,1.9-1.9h16.6
		c1.1,0,1.9,0.9,1.9,1.9V122.7z"/>
	<path class="st0" d="M185.3,98.9c0,1.1-0.9,1.9-1.9,1.9l0,0h-16.6c-1.1,0-1.9-0.9-1.9-1.9V82.4c0-1.1,0.9-1.9,1.9-1.9h16.6
		c1.1,0,1.9,0.9,1.9,1.9c0,0,0,0,0,0V98.9z"/>
	<path class="st0" d="M185.3,217.6c0,1.1-0.9,1.9-1.9,1.9h-16.6c-1.1,0-1.9-0.9-1.9-1.9v-16.6c0-1.1,0.9-1.9,1.9-1.9h16.6
		c1.1,0,1.9,0.9,1.9,1.9l0,0V217.6z"/>
	<path class="st0" d="M185.3,193.9c0,1.1-0.9,1.9-1.9,1.9h-16.6c-1.1,0-1.9-0.9-1.9-1.9v-16.6c0-1.1,0.9-1.9,1.9-1.9h16.6
		c1.1,0,1.9,0.9,1.9,1.9l0,0V193.9z"/>
	<path class="st0" d="M185.3,170.1c0,1.1-0.8,2-1.9,2c0,0,0,0,0,0h-16.6c-1.1,0-1.9-0.9-1.9-1.9v-16.6c0-1.1,0.9-1.9,1.9-1.9h16.6
		c1.1,0,1.9,0.9,1.9,1.9l0,0V170.1z"/>
	<path class="st0" d="M185.3,146.4c0,1.1-0.9,1.9-1.9,1.9c0,0,0,0,0,0h-16.6c-1.1,0-1.9-0.9-1.9-1.9v-16.6c0-1.1,0.9-1.9,1.9-1.9
		h16.6c1.1,0,1.9,0.9,1.9,1.9c0,0,0,0,0,0V146.4z"/>
	<path class="st0" d="M185.3,122.7c0,1.1-0.9,1.9-1.9,1.9c0,0,0,0,0,0h-16.6c-1.1,0-1.9-0.9-1.9-1.9v-16.6c0-1.1,0.9-1.9,1.9-1.9
		h16.6c1.1,0,1.9,0.9,1.9,1.9V122.7z"/>
	<path class="st0" d="M207.1,80.4h-16.6c-1.1,0-1.9,0.9-1.9,1.9c0,0,0,0,0,0v40.3c0,1.1,0.9,1.9,1.9,1.9c0,0,0,0,0,0h74.8L241.2,83
		c-0.9-1.5-2.5-2.5-4.3-2.5H207.1z"/>
	<path class="st0" d="M207.1,219.6h-16.6c-1.1,0-1.9-0.9-1.9-1.9v-40.3c0-1.1,0.9-1.9,1.9-1.9c0,0,0,0,0,0h74.8L241.2,217
		c-0.9,1.5-2.5,2.5-4.3,2.5H207.1z"/>
	<path class="st0" d="M223.6,172.1h43.5l12.8-22.1l-12.8-22.1h-76.7c-1.1,0-1.9,0.9-1.9,1.9v40.3c0,1.1,0.8,2,1.9,2c0,0,0,0,0,0
		H223.6z"/>
</g>
<rect class="st1" width="600" height="300"/>
<g>
	<path class="st2" d="M84.6,90c2.8,2.8,2.8,7.3,0,10.1"/>
	<path class="st2" d="M88.6,85.9c5,5,5,13.1,0,18.1"/>
	<path class="st2" d="M93.1,81.5c7.2,7.2,7,19.2-0.4,26.6"/>
</g>
</svg>
