<?xml version="1.0" encoding="utf-8"?>
<!-- Generator: Adobe Illustrator 23.0.4, SVG Export Plug-In . SVG Version: 6.00 Build 0)  -->
<svg version="1.1" id="レイヤー_1" xmlns="http://www.w3.org/2000/svg" xmlns:xlink="http://www.w3.org/1999/xlink" x="0px"
	 y="0px" viewBox="0 0 300 300" style="enable-background:new 0 0 300 300;" xml:space="preserve">
<style type="text/css">
	.st0{fill:#333333;}
	.st1{fill:none;}
</style>
<g>
	<path class="st0" d="M60.7,161.3c0,5.4-4.4,9.7-9.7,9.7c-5.4,0-9.7-4.4-9.7-9.7c0-5.4,4.4-9.7,9.7-9.7
		C56.3,151.5,60.7,155.9,60.7,161.3z"/>
	<path class="st0" d="M50.9,174c-6.9,0-23.2,0.7-23.2,14.1v32.1c-0.1,2.1,1.5,3.9,3.6,4s3.9-1.5,4-3.6l1.8-19.5l1.9,72.5
		c0,2.7,2.2,4.9,4.9,4.9s4.9-2.2,4.9-4.9l2-44.6l2,44.6c0,2.7,2.2,4.9,4.9,4.9s4.9-2.2,4.9-4.9l2-72.5l1.8,19.5
		c0.1,2.1,1.9,3.7,4,3.6c2.1-0.1,3.7-1.9,3.6-4v-32.1C74.1,174.7,57.9,174,50.9,174z"/>
</g>
<g>
	<path class="st0" d="M150.2,161.3c0,5.4-4.4,9.7-9.7,9.7c-5.4,0-9.7-4.4-9.7-9.7c0-5.4,4.4-9.7,9.7-9.7
		C145.8,151.5,150.2,155.9,150.2,161.3z"/>
	<path class="st0" d="M140.4,174c-6.9,0-23.2,0.7-23.2,14.1v32.1c-0.1,2.1,1.5,3.9,3.6,4s3.9-1.5,4-3.6l1.8-19.5l1.9,72.5
		c0,2.7,2.2,4.9,4.9,4.9s4.9-2.2,4.9-4.9l2-44.6l2,44.6c0,2.7,2.2,4.9,4.9,4.9s4.9-2.2,4.9-4.9l2-72.5l1.8,19.5
		c0.1,2.1,1.9,3.7,4,3.6c2.1-0.1,3.7-1.9,3.6-4v-32.1C163.6,174.7,147.4,174,140.4,174z"/>
</g>
<g>
	<path class="st0" d="M239.7,161.3c0,5.4-4.4,9.7-9.7,9.7c-5.4,0-9.7-4.4-9.7-9.7c0-5.4,4.4-9.7,9.7-9.7
		C235.3,151.5,239.7,155.9,239.7,161.3z"/>
	<path class="st0" d="M229.9,174c-6.9,0-23.2,0.7-23.2,14.1v32.1c-0.1,2.1,1.5,3.9,3.6,4s3.9-1.5,4-3.6l1.8-19.5l1.9,72.5
		c0,2.7,2.2,4.9,4.9,4.9s4.9-2.2,4.9-4.9l2-44.6l2,44.6c0,2.7,2.2,4.9,4.9,4.9s4.9-2.2,4.9-4.9l2-72.5l1.8,19.5
		c0.1,2.1,1.9,3.7,4,3.6c2.1-0.1,3.7-1.9,3.6-4v-32.1C253.1,174.7,236.9,174,229.9,174z"/>
</g>
<g>
	<path class="st0" d="M105.7,95.3c0,5.4-4.4,9.7-9.7,9.7c-5.4,0-9.7-4.4-9.7-9.7c0-5.4,4.4-9.7,9.7-9.7
		C101.3,85.5,105.7,89.9,105.7,95.3z"/>
	<path class="st0" d="M95.9,108c-6.9,0-23.2,0.7-23.2,14.1v32.1c-0.1,2.1,1.5,3.9,3.6,4s3.9-1.5,4-3.6l1.8-19.5l1.9,72.5
		c0,2.7,2.2,4.9,4.9,4.9c2.7,0,4.9-2.2,4.9-4.9l2-44.6l2,44.6c0,2.7,2.2,4.9,4.9,4.9c2.7,0,4.9-2.2,4.9-4.9l2-72.5l1.8,19.5
		c0.1,2.1,1.9,3.7,4,3.6c2.1-0.1,3.7-1.9,3.6-4v-32.1C119.1,108.7,102.9,108,95.9,108z"/>
</g>
<g>
	<path class="st0" d="M195.2,95.3c0,5.4-4.4,9.7-9.7,9.7c-5.4,0-9.7-4.4-9.7-9.7c0-5.4,4.4-9.7,9.7-9.7
		C190.8,85.5,195.2,89.9,195.2,95.3z"/>
	<path class="st0" d="M185.4,108c-6.9,0-23.2,0.7-23.2,14.1v32.1c-0.1,2.1,1.5,3.9,3.6,4s3.9-1.5,4-3.6l1.8-19.5l1.9,72.5
		c0,2.7,2.2,4.9,4.9,4.9s4.9-2.2,4.9-4.9l2-44.6l2,44.6c0,2.7,2.2,4.9,4.9,4.9s4.9-2.2,4.9-4.9l2-72.5l1.8,19.5
		c0.1,2.1,1.9,3.7,4,3.6c2.1-0.1,3.7-1.9,3.6-4v-32.1C208.6,108.7,192.4,108,185.4,108z"/>
</g>
<g>
	<path class="st0" d="M60.7,26.3c0,5.4-4.4,9.7-9.7,9.7c-5.4,0-9.7-4.4-9.7-9.7c0-5.4,4.4-9.7,9.7-9.7
		C56.3,16.5,60.7,20.9,60.7,26.3z"/>
	<path class="st0" d="M50.9,39c-6.9,0-23.2,0.7-23.2,14.1v32.1c-0.1,2.1,1.5,3.9,3.6,4s3.9-1.5,4-3.6l1.8-19.5l1.9,72.5
		c0,2.7,2.2,4.9,4.9,4.9s4.9-2.2,4.9-4.9l2-44.6l2,44.6c0,2.7,2.2,4.9,4.9,4.9s4.9-2.2,4.9-4.9l2-72.5l1.8,19.5
		c0.1,2.1,1.9,3.7,4,3.6s3.7-1.9,3.6-4V53.1C74.1,39.7,57.9,39,50.9,39z"/>
</g>
<g>
	<path class="st0" d="M150.2,26.3c0,5.4-4.4,9.7-9.7,9.7c-5.4,0-9.7-4.4-9.7-9.7c0-5.4,4.4-9.7,9.7-9.7
		C145.8,16.5,150.2,20.9,150.2,26.3z"/>
	<path class="st0" d="M140.4,39c-6.9,0-23.2,0.7-23.2,14.1v32.1c-0.1,2.1,1.5,3.9,3.6,4s3.9-1.5,4-3.6l1.8-19.5l1.9,72.5
		c0,2.7,2.2,4.9,4.9,4.9s4.9-2.2,4.9-4.9l2-44.6l2,44.6c0,2.7,2.2,4.9,4.9,4.9s4.9-2.2,4.9-4.9l2-72.5l1.8,19.5
		c0.1,2.1,1.9,3.7,4,3.6s3.7-1.9,3.6-4V53.1C163.6,39.7,147.4,39,140.4,39z"/>
</g>
<g>
	<path class="st0" d="M239.7,26.3c0,5.4-4.4,9.7-9.7,9.7c-5.4,0-9.7-4.4-9.7-9.7c0-5.4,4.4-9.7,9.7-9.7
		C235.3,16.5,239.7,20.9,239.7,26.3z"/>
	<path class="st0" d="M229.9,39c-6.9,0-23.2,0.7-23.2,14.1v32.1c-0.1,2.1,1.5,3.9,3.6,4s3.9-1.5,4-3.6l1.8-19.5l1.9,72.5
		c0,2.7,2.2,4.9,4.9,4.9s4.9-2.2,4.9-4.9l2-44.6l2,44.6c0,2.7,2.2,4.9,4.9,4.9s4.9-2.2,4.9-4.9l2-72.5l1.8,19.5
		c0.1,2.1,1.9,3.7,4,3.6s3.7-1.9,3.6-4V53.1C253.1,39.7,236.9,39,229.9,39z"/>
</g>
</svg>
