<?xml version="1.0" encoding="utf-8"?>
<!-- Generator: Adobe Illustrator 23.0.4, SVG Export Plug-In . SVG Version: 6.00 Build 0)  -->
<svg version="1.1" id="レイヤー_1" xmlns="http://www.w3.org/2000/svg" xmlns:xlink="http://www.w3.org/1999/xlink" x="0px"
	 y="0px" viewBox="0 0 98 300" style="enable-background:new 0 0 98 300;" xml:space="preserve">
<style type="text/css">
	.st0{fill:#333333;}
	.st1{fill:none;}
</style>
<g>
	<path class="st0" d="M58.8,96.3c0,5.4-4.4,9.7-9.7,9.7c-5.4,0-9.7-4.4-9.7-9.7c0-5.4,4.4-9.7,9.7-9.7
		C54.4,86.5,58.8,90.9,58.8,96.3z"/>
	<path class="st0" d="M49,109c-6.9,0-23.2,0.7-23.2,14.1v32.1c-0.1,2.1,1.5,3.9,3.6,4s3.9-1.5,4-3.6l1.8-19.5l1.9,72.5
		c0,2.7,2.2,4.9,4.9,4.9s4.9-2.2,4.9-4.9l2-44.6l2,44.6c0,2.7,2.2,4.9,4.9,4.9s4.9-2.2,4.9-4.9l2-72.5l1.8,19.5
		c0.1,2.1,1.9,3.7,4,3.6c2.1-0.1,3.7-1.9,3.6-4v-32.1C72.2,109.7,56,109,49,109z"/>
</g>
<rect x="0" class="st1" width="98" height="300"/>
</svg>
